<svg width="224" height="68" viewBox="0 0 224 68" fill="none" xmlns="http://www.w3.org/2000/svg">
<path d="M160 14.5243C162.761 14.5243 165 13.0464 165 11.2233C165 9.40026 162.761 7.92236 160 7.92236C157.239 7.92236 155 9.40026 155 11.2233C155 13.0464 157.239 14.5243 160 14.5243Z" stroke="white" stroke-width="2" stroke-miterlimit="10"/>
<path d="M165.5 3.6311H154.5C151.186 3.6311 148.5 5.40458 148.5 7.59227V14.8544C148.5 17.0421 151.186 18.8156 154.5 18.8156H165.5C168.814 18.8156 171.5 17.0421 171.5 14.8544V7.59227C171.5 5.40458 168.814 3.6311 165.5 3.6311Z" stroke="white" stroke-width="2" stroke-linecap="round" stroke-linejoin="round"/>
<path d="M166.5 7.92248C167.328 7.92248 168 7.47911 168 6.93219C168 6.38526 167.328 5.94189 166.5 5.94189C165.672 5.94189 165 6.38526 165 6.93219C165 7.47911 165.672 7.92248 166.5 7.92248Z" fill="white"/>
<path d="M102 17.165C102 17.165 107 16.5048 108 14.5243C108 14.5243 100 12.5437 102 5.28154C102 5.28154 106 8.58251 112 9.2427V7.92255C112 7.16412 112.396 6.42884 113.12 5.84032C113.845 5.25181 114.854 4.84596 115.979 4.69099C117.104 4.53603 118.275 4.64141 119.295 4.98941C120.316 5.33741 121.124 5.90681 121.584 6.60189L126 6.60192L122 9.2427C122 13.8641 117 18.4854 108 18.4854C104 18.4854 102 17.165 102 17.165Z" stroke="white" stroke-width="2" stroke-linecap="round" stroke-linejoin="round"/>
<path d="M9 16.1749C12.866 16.1749 16 13.958 16 11.2234C16 8.48882 12.866 6.27197 9 6.27197C5.13401 6.27197 2 8.48882 2 11.2234C2 13.958 5.13401 16.1749 9 16.1749Z" stroke="white" stroke-width="2" stroke-linecap="round" stroke-linejoin="round"/>
<path d="M23 15.8448C24.6569 15.8448 26 13.7757 26 11.2234C26 8.6711 24.6569 6.60205 23 6.60205C21.3431 6.60205 20 8.6711 20 11.2234C20 13.7757 21.3431 15.8448 23 15.8448Z" stroke="white" stroke-width="2" stroke-linecap="round" stroke-linejoin="round"/>
<path d="M30 6.60205V15.8448" stroke="white" stroke-width="2" stroke-linecap="round" stroke-linejoin="round"/>
<path d="M74 3.96118H54C53.4477 3.96118 53 4.25676 53 4.62138V17.8253C53 18.1899 53.4477 18.4855 54 18.4855H74C74.5523 18.4855 75 18.1899 75 17.8253V4.62138C75 4.25676 74.5523 3.96118 74 3.96118Z" stroke="white" stroke-width="2" stroke-linecap="round" stroke-linejoin="round"/>
<path d="M63 9.90283V15.1844" stroke="white" stroke-width="2" stroke-linecap="round" stroke-linejoin="round"/>
<path d="M59 9.90283V15.1844" stroke="white" stroke-width="2" stroke-linecap="round" stroke-linejoin="round"/>
<path d="M63 12.2135C63 11.6007 63.3687 11.013 64.0251 10.5796C64.6815 10.1463 65.5717 9.90283 66.5 9.90283C67.4283 9.90283 68.3185 10.1463 68.9749 10.5796C69.6313 11.013 70 11.6007 70 12.2135V15.1844" stroke="white" stroke-width="2" stroke-linecap="round" stroke-linejoin="round"/>
<path d="M59 8.25256C59.8284 8.25256 60.5 7.80919 60.5 7.26226C60.5 6.71534 59.8284 6.27197 59 6.27197C58.1716 6.27197 57.5 6.71534 57.5 7.26226C57.5 7.80919 58.1716 8.25256 59 8.25256Z" fill="white"/>
</svg>
